{
  "accessors": [
    {
      "bufferView": 2,
      "componentType": 5126,
      "count": 96,
      "max": [
        0.6875,
        0.48213666677474976,
        0.5183340311050415
      ],
      "min": [
        -0.6875,
        -0.040854260325431824,
        -0.5050969123840332
      ],
      "type": "VEC3"
    },
    {
      "bufferView": 2,
      "byteOffset": 1152,
      "componentType": 5126,
      "count": 96,
      "max": [
        1.0,
        0.9961947798728943,
        0.9961947202682495
      ],
      "min": [
        -1.0,
        -0.9961947798728943,
        -0.9961947798728943
      ],
      "type": "VEC3"
    },
    {
      "bufferView": 1,
      "componentType": 5126,
      "count": 96,
      "max": [
        0.421875,
        0.8125
      ],
      "min": [
        0.0,
        0.0
      ],
      "type": "VEC2"
    },
    {
      "bufferView": 0,
      "componentType": 5125,
      "count": 144,
      "type": "SCALAR"
    },
    {
      "bufferView": 2,
      "byteOffset": 2304,
      "componentType": 5126,
      "count": 96,
      "max": [
        0.625,
        1.0316016674041748,
        0.40470409393310547
      ],
      "min": [
        -0.625,
        -0.08677476644515991,
        -0.5945951342582703
      ],
      "type": "VEC3"
    },
    {
      "bufferView": 2,
      "byteOffset": 3456,
      "componentType": 5126,
      "count": 96,
      "max": [
        1.0,
        0.9961947798728943,
        0.9961947798728943
      ],
      "min": [
        -1.0,
        -0.9969687461853027,
        -0.9961947798728943
      ],
      "type": "VEC3"
    },
    {
      "bufferView": 1,
      "byteOffset": 768,
      "componentType": 5126,
      "count": 96,
      "max": [
        1.0,
        0.984375
      ],
      "min": [
        0.296875,
        0.0
      ],
      "type": "VEC2"
    },
    {
      "bufferView": 0,
      "byteOffset": 576,
      "componentType": 5125,
      "count": 144,
      "type": "SCALAR"
    },
    {
      "bufferView": 2,
      "byteOffset": 4608,
      "componentType": 5126,
      "count": 337,
      "max": [
        0.20343494415283203,
        0.09728816151618958,
        0.19223374128341675
      ],
      "min": [
        -0.1875,
        -0.07860387861728668,
        -0.6447235345840454
      ],
      "type": "VEC3"
    },
    {
      "bufferView": 2,
      "byteOffset": 8652,
      "componentType": 5126,
      "count": 337,
      "max": [
        1.0,
        0.9961947202682495,
        0.9961947202682495
      ],
      "min": [
        -1.0,
        -0.9997811317443848,
        -0.9961947202682495
      ],
      "type": "VEC3"
    },
    {
      "bufferView": 1,
      "byteOffset": 1536,
      "componentType": 5126,
      "count": 337,
      "max": [
        0.9922477602958679,
        0.4434354305267334
      ],
      "min": [
        0.75,
        0.109375
      ],
      "type": "VEC2"
    },
    {
      "bufferView": 0,
      "byteOffset": 1152,
      "componentType": 5125,
      "count": 507,
      "type": "SCALAR"
    },
    {
      "bufferView": 2,
      "byteOffset": 12696,
      "componentType": 5126,
      "count": 121,
      "max": [
        0.625,
        0.0625,
        0.24999994039535522
      ],
      "min": [
        -0.625,
        -0.10068131983280182,
        -0.891777753829956
      ],
      "type": "VEC3"
    },
    {
      "bufferView": 2,
      "byteOffset": 14148,
      "componentType": 5126,
      "count": 121,
      "max": [
        1.0,
        1.0,
        1.0
      ],
      "min": [
        -1.0,
        -1.0,
        -1.0
      ],
      "type": "VEC3"
    },
    {
      "bufferView": 1,
      "byteOffset": 4232,
      "componentType": 5126,
      "count": 121,
      "max": [
        0.96875,
        0.4466639757156372
      ],
      "min": [
        0.4375,
        0.0
      ],
      "type": "VEC2"
    },
    {
      "bufferView": 0,
      "byteOffset": 3180,
      "componentType": 5125,
      "count": 183,
      "type": "SCALAR"
    }
  ],
  "asset": {
    "extras": {
      "author": "Tobalation (https://sketchfab.com/tobalation)",
      "license": "CC-BY-4.0 (http://creativecommons.org/licenses/by/4.0/)",
      "source": "https://sketchfab.com/3d-models/retro-computer-3a496376915846459d77fc14fdd6c1e0",
      "title": "Retro computer"
    },
    "generator": "Sketchfab-12.67.0",
    "version": "2.0"
  },
  "bufferViews": [
    {
      "buffer": 0,
      "byteLength": 3912,
      "name": "floatBufferViews",
      "target": 34963
    },
    {
      "buffer": 0,
      "byteLength": 5200,
      "byteOffset": 3912,
      "byteStride": 8,
      "name": "floatBufferViews",
      "target": 34962
    },
    {
      "buffer": 0,
      "byteLength": 15600,
      "byteOffset": 9112,
      "byteStride": 12,
      "name": "floatBufferViews",
      "target": 34962
    }
  ],
  "buffers": [
    {
      "byteLength": 24712,
      "uri": "scene.bin"
    }
  ],
  "images": [
    {
      "uri": "textures/TextureGrid_emissive.png"
    }
  ],
  "materials": [
    {
      "doubleSided": true,
      "emissiveFactor": [
        1.0,
        1.0,
        1.0
      ],
      "emissiveTexture": {
        "index": 0
      },
      "name": "TextureGrid"
    }
  ],
  "meshes": [
    {
      "name": "Object_0",
      "primitives": [
        {
          "attributes": {
            "NORMAL": 1,
            "POSITION": 0,
            "TEXCOORD_0": 2
          },
          "indices": 3,
          "material": 0,
          "mode": 4
        }
      ]
    },
    {
      "name": "Object_1",
      "primitives": [
        {
          "attributes": {
            "NORMAL": 5,
            "POSITION": 4,
            "TEXCOORD_0": 6
          },
          "indices": 7,
          "material": 0,
          "mode": 4
        }
      ]
    },
    {
      "name": "Object_2",
      "primitives": [
        {
          "attributes": {
            "NORMAL": 9,
            "POSITION": 8,
            "TEXCOORD_0": 10
          },
          "indices": 11,
          "material": 0,
          "mode": 4
        }
      ]
    },
    {
      "name": "Object_3",
      "primitives": [
        {
          "attributes": {
            "NORMAL": 13,
            "POSITION": 12,
            "TEXCOORD_0": 14
          },
          "indices": 15,
          "material": 0,
          "mode": 4
        }
      ]
    }
  ],
  "nodes": [
    {
      "children": [
        1
      ],
      "matrix": [
        0.3636363744735718,
        0.0,
        0.0,
        0.0,
        0.0,
        8.074349510635498e-17,
        -0.3636363744735718,
        0.0,
        0.0,
        0.3636363744735718,
        8.074349510635498e-17,
        0.0,
        0.0,
        0.0,
        0.0,
        1.0
      ],
      "name": "Sketchfab_model"
    },
    {
      "children": [
        2
      ],
      "name": "root"
    },
    {
      "children": [
        3,
        5,
        7,
        9
      ],
      "matrix": [
        1.0,
        0.0,
        0.0,
        0.0,
        0.0,
        2.220446049250313e-16,
        1.0,
        0.0,
        0.0,
        -1.0,
        2.220446049250313e-16,
        0.0,
        0.0,
        0.0,
        0.0,
        1.0
      ],
      "name": "GLTF_SceneRootNode"
    },
    {
      "children": [
        4
      ],
      "matrix": [
        1.0,
        0.0,
        0.0,
        0.0,
        0.0,
        0.9961946989169818,
        0.08715573331516414,
        0.0,
        0.0,
        -0.08715573331516414,
        0.9961946989169818,
        0.0,
        0.0,
        0.0,
        -0.03125,
        1.0
      ],
      "name": "PC_0"
    },
    {
      "mesh": 0,
      "name": "Object_4"
    },
    {
      "children": [
        6
      ],
      "matrix": [
        1.0,
        0.0,
        0.0,
        0.0,
        0.0,
        0.9961946989169818,
        0.08715573331516414,
        0.0,
        0.0,
        -0.08715573331516414,
        0.9961946989169818,
        0.0,
        0.0,
        0.5000000596046448,
        0.03125005215406418,
        1.0
      ],
      "name": "Monitor_1"
    },
    {
      "mesh": 1,
      "name": "Object_6"
    },
    {
      "children": [
        8
      ],
      "matrix": [
        1.0,
        0.0,
        0.0,
        0.0,
        0.0,
        0.9961946989169818,
        0.08715573331516414,
        0.0,
        0.0,
        -0.08715573331516414,
        0.9961946989169818,
        0.0,
        0.875,
        0.06250002235174179,
        0.7500000596046448,
        1.0
      ],
      "name": "Mouse_2"
    },
    {
      "mesh": 2,
      "name": "Object_8"
    },
    {
      "children": [
        10
      ],
      "matrix": [
        1.0,
        0.0,
        0.0,
        0.0,
        0.0,
        0.9961946989169818,
        0.08715573331516414,
        0.0,
        0.0,
        -0.08715573331516414,
        0.9961946989169818,
        0.0,
        0.0,
        0.0624999925494194,
        0.8125001192092896,
        1.0
      ],
      "name": "Keyboard_3"
    },
    {
      "mesh": 3,
      "name": "Object_10"
    }
  ],
  "samplers": [
    {
      "magFilter": 9728,
      "minFilter": 9728,
      "wrapS": 10497,
      "wrapT": 10497
    }
  ],
  "scene": 0,
  "scenes": [
    {
      "name": "Sketchfab_Scene",
      "nodes": [
        0
      ]
    }
  ],
  "textures": [
    {
      "sampler": 0,
      "source": 0
    }
  ]
}
