<svg xmlns="http://www.w3.org/2000/svg" version="1.1" xmlns:xlink="http://www.w3.org/1999/xlink" xmlns:svgjs="http://svgjs.dev/svgjs" width="1000" height="625" viewBox="0 0 1000 625"><g transform="matrix(1,0,0,1,0,0)"><svg viewBox="0 0 512 320" data-background-color="#132d2d" preserveAspectRatio="xMidYMid meet" height="625" width="1000" xmlns="http://www.w3.org/2000/svg" xmlns:xlink="http://www.w3.org/1999/xlink"><g id="tight-bounds" transform="matrix(1,0,0,1,0,0)"><svg viewBox="0 0 512 320" height="320" width="512"><g><svg></svg></g><g><svg viewBox="0 0 512 320" height="320" width="512"><g><path xmlns="http://www.w3.org/2000/svg" d="M96 160c0-88.366 71.634-160 160-160 88.366 0 160 71.634 160 160 0 88.366-71.634 160-160 160-88.366 0-160-71.634-160-160z" fill="#88b8c8" fill-rule="nonzero" stroke="none" stroke-width="1" stroke-linecap="butt" stroke-linejoin="miter" stroke-miterlimit="10" stroke-dasharray="" stroke-dashoffset="0" font-family="none" font-weight="none" font-size="none" text-anchor="none" style="mix-blend-mode: normal" data-fill-palette-color="tertiary"></path></g><g transform="matrix(1,0,0,1,181.31400966183577,80)"><svg viewBox="0 0 149.3719806763285 160" height="160" width="149.3719806763285"><g><svg viewBox="0 0 149.3719806763285 160" height="160" width="149.3719806763285"><g><svg viewBox="0 0 149.3719806763285 160" height="160" width="149.3719806763285"><g id="textblocktransform"><svg viewBox="0 0 149.3719806763285 160" height="160" width="149.3719806763285" id="textblock"><g><svg viewBox="0 0 149.3719806763285 160" height="160" width="149.3719806763285"><g transform="matrix(1,0,0,1,0,0)"><svg width="149.3719806763285" viewBox="0.8500000238418579 -40.43000030517578 37.75 40.43000030517578" height="160" data-palette-color="#132d2d"><path d="M6.13-40.43L15.8-20.34 14.92-18.41 4.37-40.43 6.13-40.43ZM9.64-40.43L17.55-24.19 16.65-22.27 7.89-40.43 9.64-40.43ZM13.16-40.43L19.31-28.03 18.43-26.1 11.4-40.43 13.16-40.43ZM17.09 0L17.09-13.62 29.81-40.43 31.57-40.43 18.85-13.62 18.85 0 17.09 0ZM20.61 0L20.61-13.62 33.33-40.43 35.08-40.43 22.36-13.62 22.36 0 20.61 0ZM24.12 0L24.12-13.62 36.84-40.43 38.6-40.43 25.88-13.62 25.88 0 24.12 0ZM2.61-40.43L14.45-15.48 26.29-40.43 28.05-40.43 15.33-13.62 15.33 0 13.57 0 13.57-13.62 0.85-40.43 2.61-40.43Z" opacity="1" transform="matrix(1,0,0,1,0,0)" fill="#132d2d" class="wordmark-text-0" data-fill-palette-color="quaternary" id="text-0"></path></svg></g></svg></g></svg></g></svg></g><g></g></svg></g></svg></g></svg></g><defs></defs></svg><rect width="512" height="320" fill="none" stroke="none" visibility="hidden"></rect></g></svg></g></svg>